<mxfile host="app.diagrams.net" modified="2021-07-31T15:37:43.492Z" agent="5.0 (Windows NT 10.0; Win64; x64) AppleWebKit/537.36 (KHTML, like Gecko) Chrome/92.0.4515.107 Safari/537.36" etag="NtQ-rcC57gci_YGfiydI" version="14.9.3" type="github">
  <diagram id="C5RBs43oDa-KdzZeNtuy" name="Page-1">
    <mxGraphModel dx="3434" dy="1646" grid="1" gridSize="12" guides="1" tooltips="1" connect="1" arrows="1" fold="1" page="0" pageScale="1" pageWidth="827" pageHeight="1169" math="0" shadow="0">
      <root>
        <mxCell id="WIyWlLk6GJQsqaUBKTNV-0" />
        <mxCell id="WIyWlLk6GJQsqaUBKTNV-1" parent="WIyWlLk6GJQsqaUBKTNV-0" />
        <mxCell id="WPyX183gVmHdlrmDqzyF-60" style="edgeStyle=orthogonalEdgeStyle;rounded=0;orthogonalLoop=1;jettySize=auto;html=1;entryX=0.5;entryY=0;entryDx=0;entryDy=0;fontSize=14;fontColor=#000000;exitX=0;exitY=0.5;exitDx=0;exitDy=0;" edge="1" parent="WIyWlLk6GJQsqaUBKTNV-1" source="zkfFHV4jXpPFQw0GAbJ--1" target="WPyX183gVmHdlrmDqzyF-48">
          <mxGeometry relative="1" as="geometry" />
        </mxCell>
        <mxCell id="zkfFHV4jXpPFQw0GAbJ--0" value="MainView" style="swimlane;fontStyle=1;align=center;verticalAlign=middle;childLayout=stackLayout;horizontal=1;startSize=40;horizontalStack=0;resizeParent=1;resizeLast=0;collapsible=1;marginBottom=0;shadow=0;strokeWidth=1;fontSize=14;fillColor=#fff2cc;strokeColor=#d6b656;" parent="WIyWlLk6GJQsqaUBKTNV-1" vertex="1">
          <mxGeometry x="-169" y="-192" width="290" height="152" as="geometry">
            <mxRectangle x="280" y="120" width="160" height="26" as="alternateBounds" />
          </mxGeometry>
        </mxCell>
        <mxCell id="zkfFHV4jXpPFQw0GAbJ--1" value="- stateManager: StateManager" style="text;align=left;verticalAlign=middle;spacingLeft=4;spacingRight=4;overflow=hidden;rotatable=0;points=[[0,0.5],[1,0.5]];portConstraint=eastwest;fontSize=14;fillColor=#ffcd28;strokeColor=#d79b00;gradientColor=#ffa500;" parent="zkfFHV4jXpPFQw0GAbJ--0" vertex="1">
          <mxGeometry y="40" width="290" height="26" as="geometry" />
        </mxCell>
        <mxCell id="zkfFHV4jXpPFQw0GAbJ--2" value="- mainRenderer: MainRenderer" style="text;align=left;verticalAlign=middle;spacingLeft=4;spacingRight=4;overflow=hidden;rotatable=0;points=[[0,0.5],[1,0.5]];portConstraint=eastwest;shadow=0;html=0;fontSize=14;strokeColor=#d79b00;fillColor=#ffcd28;gradientColor=#ffa500;" parent="zkfFHV4jXpPFQw0GAbJ--0" vertex="1">
          <mxGeometry y="66" width="290" height="26" as="geometry" />
        </mxCell>
        <mxCell id="zkfFHV4jXpPFQw0GAbJ--3" value="- gestureDetector: GestureDetector" style="text;align=left;verticalAlign=middle;spacingLeft=4;spacingRight=4;overflow=hidden;rotatable=0;points=[[0,0.5],[1,0.5]];portConstraint=eastwest;shadow=0;html=0;fontSize=14;strokeColor=#d79b00;fillColor=#ffcd28;gradientColor=#ffa500;" parent="zkfFHV4jXpPFQw0GAbJ--0" vertex="1">
          <mxGeometry y="92" width="290" height="26" as="geometry" />
        </mxCell>
        <mxCell id="zkfFHV4jXpPFQw0GAbJ--4" value="" style="line;html=1;strokeWidth=1;align=left;verticalAlign=middle;spacingTop=-1;spacingLeft=3;spacingRight=3;rotatable=0;labelPosition=right;points=[];portConstraint=eastwest;" parent="zkfFHV4jXpPFQw0GAbJ--0" vertex="1">
          <mxGeometry y="118" width="290" height="8" as="geometry" />
        </mxCell>
        <mxCell id="zkfFHV4jXpPFQw0GAbJ--5" value="+ onTouchEvent(in e: MotionEvent): boolean" style="text;align=left;verticalAlign=middle;spacingLeft=4;spacingRight=4;overflow=hidden;rotatable=0;points=[[0,0.5],[1,0.5]];portConstraint=eastwest;fontSize=14;" parent="zkfFHV4jXpPFQw0GAbJ--0" vertex="1">
          <mxGeometry y="126" width="290" height="26" as="geometry" />
        </mxCell>
        <mxCell id="WPyX183gVmHdlrmDqzyF-13" style="edgeStyle=orthogonalEdgeStyle;orthogonalLoop=1;jettySize=auto;html=1;exitX=1;exitY=0.5;exitDx=0;exitDy=0;" edge="1" parent="zkfFHV4jXpPFQw0GAbJ--0" source="zkfFHV4jXpPFQw0GAbJ--3" target="zkfFHV4jXpPFQw0GAbJ--3">
          <mxGeometry relative="1" as="geometry" />
        </mxCell>
        <mxCell id="WPyX183gVmHdlrmDqzyF-9" value="MainRenderer" style="swimlane;fontStyle=1;align=center;verticalAlign=middle;childLayout=stackLayout;horizontal=1;startSize=40;horizontalStack=0;resizeParent=1;resizeParentMax=0;resizeLast=0;collapsible=1;marginBottom=0;fontSize=14;shadow=0;glass=0;swimlaneLine=1;swimlaneFillColor=none;fillColor=#fff2cc;strokeColor=#d6b656;" vertex="1" parent="WIyWlLk6GJQsqaUBKTNV-1">
          <mxGeometry x="237" y="-27" width="480" height="334" as="geometry" />
        </mxCell>
        <mxCell id="WPyX183gVmHdlrmDqzyF-30" value="- stateManager: StateManager" style="text;strokeColor=#d6b656;fillColor=#fff2cc;align=left;verticalAlign=middle;spacingLeft=4;spacingRight=4;overflow=hidden;rotatable=0;points=[[0,0.5],[1,0.5]];portConstraint=eastwest;shadow=0;glass=0;fontSize=14;" vertex="1" parent="WPyX183gVmHdlrmDqzyF-9">
          <mxGeometry y="40" width="480" height="26" as="geometry" />
        </mxCell>
        <mxCell id="WPyX183gVmHdlrmDqzyF-24" value="- painter: Painter" style="text;strokeColor=#d79b00;fillColor=#ffcd28;align=left;verticalAlign=middle;spacingLeft=4;spacingRight=4;overflow=hidden;rotatable=0;points=[[0,0.5],[1,0.5]];portConstraint=eastwest;shadow=0;glass=0;fontSize=14;gradientColor=#ffa500;" vertex="1" parent="WPyX183gVmHdlrmDqzyF-9">
          <mxGeometry y="66" width="480" height="26" as="geometry" />
        </mxCell>
        <mxCell id="WPyX183gVmHdlrmDqzyF-27" value="- resources: Resources" style="text;strokeColor=none;fillColor=none;align=left;verticalAlign=middle;spacingLeft=4;spacingRight=4;overflow=hidden;rotatable=0;points=[[0,0.5],[1,0.5]];portConstraint=eastwest;shadow=0;glass=0;fontSize=14;" vertex="1" parent="WPyX183gVmHdlrmDqzyF-9">
          <mxGeometry y="92" width="480" height="26" as="geometry" />
        </mxCell>
        <mxCell id="WPyX183gVmHdlrmDqzyF-28" value="- width: int" style="text;strokeColor=none;fillColor=none;align=left;verticalAlign=middle;spacingLeft=4;spacingRight=4;overflow=hidden;rotatable=0;points=[[0,0.5],[1,0.5]];portConstraint=eastwest;shadow=0;glass=0;fontSize=14;" vertex="1" parent="WPyX183gVmHdlrmDqzyF-9">
          <mxGeometry y="118" width="480" height="26" as="geometry" />
        </mxCell>
        <mxCell id="WPyX183gVmHdlrmDqzyF-29" value="- height: int" style="text;strokeColor=none;fillColor=none;align=left;verticalAlign=middle;spacingLeft=4;spacingRight=4;overflow=hidden;rotatable=0;points=[[0,0.5],[1,0.5]];portConstraint=eastwest;shadow=0;glass=0;fontSize=14;" vertex="1" parent="WPyX183gVmHdlrmDqzyF-9">
          <mxGeometry y="144" width="480" height="26" as="geometry" />
        </mxCell>
        <mxCell id="WPyX183gVmHdlrmDqzyF-11" value="" style="line;strokeWidth=1;fillColor=none;align=left;verticalAlign=middle;spacingTop=-1;spacingLeft=3;spacingRight=3;rotatable=0;labelPosition=right;points=[];portConstraint=eastwest;" vertex="1" parent="WPyX183gVmHdlrmDqzyF-9">
          <mxGeometry y="170" width="480" height="8" as="geometry" />
        </mxCell>
        <mxCell id="WPyX183gVmHdlrmDqzyF-12" value="+ onSurfaceCreated(in unused: GL10, in config: EGLConfig): void" style="text;strokeColor=none;fillColor=none;align=left;verticalAlign=middle;spacingLeft=4;spacingRight=4;overflow=hidden;rotatable=0;points=[[0,0.5],[1,0.5]];portConstraint=eastwest;fontSize=14;" vertex="1" parent="WPyX183gVmHdlrmDqzyF-9">
          <mxGeometry y="178" width="480" height="26" as="geometry" />
        </mxCell>
        <mxCell id="WPyX183gVmHdlrmDqzyF-32" value="+ onSurfaceChanged(in unused: GL10, in width: int , in height: int): void" style="text;strokeColor=none;fillColor=none;align=left;verticalAlign=top;spacingLeft=4;spacingRight=4;overflow=hidden;rotatable=0;points=[[0,0.5],[1,0.5]];portConstraint=eastwest;shadow=0;glass=0;fontSize=14;fontStyle=0;" vertex="1" parent="WPyX183gVmHdlrmDqzyF-9">
          <mxGeometry y="204" width="480" height="26" as="geometry" />
        </mxCell>
        <mxCell id="WPyX183gVmHdlrmDqzyF-33" value="+ onDrawFrame(in unused: GL10): void" style="text;strokeColor=none;fillColor=none;align=left;verticalAlign=top;spacingLeft=4;spacingRight=4;overflow=hidden;rotatable=0;points=[[0,0.5],[1,0.5]];portConstraint=eastwest;shadow=0;glass=0;fontSize=14;fontColor=#000000;" vertex="1" parent="WPyX183gVmHdlrmDqzyF-9">
          <mxGeometry y="230" width="480" height="26" as="geometry" />
        </mxCell>
        <mxCell id="WPyX183gVmHdlrmDqzyF-34" value="+ width(out width: int): int" style="text;strokeColor=none;fillColor=none;align=left;verticalAlign=top;spacingLeft=4;spacingRight=4;overflow=hidden;rotatable=0;points=[[0,0.5],[1,0.5]];portConstraint=eastwest;shadow=0;glass=0;fontSize=14;fontColor=#000000;" vertex="1" parent="WPyX183gVmHdlrmDqzyF-9">
          <mxGeometry y="256" width="480" height="26" as="geometry" />
        </mxCell>
        <mxCell id="WPyX183gVmHdlrmDqzyF-35" value="+ height(out height: int): int" style="text;strokeColor=none;fillColor=none;align=left;verticalAlign=top;spacingLeft=4;spacingRight=4;overflow=hidden;rotatable=0;points=[[0,0.5],[1,0.5]];portConstraint=eastwest;shadow=0;glass=0;fontSize=14;fontColor=#000000;" vertex="1" parent="WPyX183gVmHdlrmDqzyF-9">
          <mxGeometry y="282" width="480" height="26" as="geometry" />
        </mxCell>
        <mxCell id="WPyX183gVmHdlrmDqzyF-36" value="+ readRawResource(in resources: Resources, in id: int): String" style="text;strokeColor=none;fillColor=none;align=left;verticalAlign=top;spacingLeft=4;spacingRight=4;overflow=hidden;rotatable=0;points=[[0,0.5],[1,0.5]];portConstraint=eastwest;shadow=0;glass=0;fontSize=14;fontColor=#000000;" vertex="1" parent="WPyX183gVmHdlrmDqzyF-9">
          <mxGeometry y="308" width="480" height="26" as="geometry" />
        </mxCell>
        <mxCell id="WPyX183gVmHdlrmDqzyF-44" style="edgeStyle=orthogonalEdgeStyle;rounded=0;orthogonalLoop=1;jettySize=auto;html=1;entryX=0.5;entryY=0;entryDx=0;entryDy=0;fontSize=14;fontColor=#000000;" edge="1" parent="WIyWlLk6GJQsqaUBKTNV-1" source="WPyX183gVmHdlrmDqzyF-37" target="zkfFHV4jXpPFQw0GAbJ--0">
          <mxGeometry relative="1" as="geometry" />
        </mxCell>
        <mxCell id="WPyX183gVmHdlrmDqzyF-37" value="MainActivity" style="swimlane;fontStyle=1;align=center;verticalAlign=top;childLayout=stackLayout;horizontal=1;startSize=26;horizontalStack=0;resizeParent=1;resizeParentMax=0;resizeLast=0;collapsible=1;marginBottom=0;shadow=0;glass=0;fontSize=14;fontColor=#000000;fillColor=#ffffff;gradientColor=none;" vertex="1" parent="WIyWlLk6GJQsqaUBKTNV-1">
          <mxGeometry x="-192" y="-384" width="336" height="86" as="geometry" />
        </mxCell>
        <mxCell id="WPyX183gVmHdlrmDqzyF-41" value=" " style="text;strokeColor=none;fillColor=none;align=left;verticalAlign=top;spacingLeft=4;spacingRight=4;overflow=hidden;rotatable=0;points=[[0,0.5],[1,0.5]];portConstraint=eastwest;shadow=0;glass=0;fontSize=14;fontColor=#000000;" vertex="1" parent="WPyX183gVmHdlrmDqzyF-37">
          <mxGeometry y="26" width="336" height="26" as="geometry" />
        </mxCell>
        <mxCell id="WPyX183gVmHdlrmDqzyF-39" value="" style="line;strokeWidth=1;fillColor=none;align=left;verticalAlign=middle;spacingTop=-1;spacingLeft=3;spacingRight=3;rotatable=0;labelPosition=right;points=[];portConstraint=eastwest;" vertex="1" parent="WPyX183gVmHdlrmDqzyF-37">
          <mxGeometry y="52" width="336" height="8" as="geometry" />
        </mxCell>
        <mxCell id="WPyX183gVmHdlrmDqzyF-40" value="+ onCreate(in savedInstanceState: Bundle): void" style="text;strokeColor=#d79b00;fillColor=#ffcd28;align=left;verticalAlign=top;spacingLeft=4;spacingRight=4;overflow=hidden;rotatable=0;points=[[0,0.5],[1,0.5]];portConstraint=eastwest;fontSize=14;gradientColor=#ffa500;" vertex="1" parent="WPyX183gVmHdlrmDqzyF-37">
          <mxGeometry y="60" width="336" height="26" as="geometry" />
        </mxCell>
        <mxCell id="WPyX183gVmHdlrmDqzyF-46" style="edgeStyle=orthogonalEdgeStyle;rounded=0;orthogonalLoop=1;jettySize=auto;html=1;entryX=0.5;entryY=0;entryDx=0;entryDy=0;fontSize=14;fontColor=#000000;" edge="1" parent="WIyWlLk6GJQsqaUBKTNV-1" source="zkfFHV4jXpPFQw0GAbJ--2" target="WPyX183gVmHdlrmDqzyF-9">
          <mxGeometry relative="1" as="geometry" />
        </mxCell>
        <mxCell id="WPyX183gVmHdlrmDqzyF-111" style="edgeStyle=orthogonalEdgeStyle;rounded=0;orthogonalLoop=1;jettySize=auto;html=1;entryX=0;entryY=0.5;entryDx=0;entryDy=0;fontSize=14;fontColor=#000000;" edge="1" parent="WIyWlLk6GJQsqaUBKTNV-1" source="WPyX183gVmHdlrmDqzyF-48" target="WPyX183gVmHdlrmDqzyF-30">
          <mxGeometry relative="1" as="geometry" />
        </mxCell>
        <mxCell id="WPyX183gVmHdlrmDqzyF-48" value="StateManager" style="swimlane;fontStyle=1;align=center;verticalAlign=top;childLayout=stackLayout;horizontal=1;startSize=26;horizontalStack=0;resizeParent=1;resizeParentMax=0;resizeLast=0;collapsible=1;marginBottom=0;shadow=0;glass=0;fontSize=14;fillColor=#fff2cc;strokeColor=#d6b656;" vertex="1" parent="WIyWlLk6GJQsqaUBKTNV-1">
          <mxGeometry x="-588" y="-96" width="312" height="242" as="geometry" />
        </mxCell>
        <mxCell id="WPyX183gVmHdlrmDqzyF-49" value="- gameState: State" style="text;strokeColor=#d79b00;fillColor=#ffcd28;align=left;verticalAlign=top;spacingLeft=4;spacingRight=4;overflow=hidden;rotatable=0;points=[[0,0.5],[1,0.5]];portConstraint=eastwest;fontSize=14;gradientColor=#ffa500;" vertex="1" parent="WPyX183gVmHdlrmDqzyF-48">
          <mxGeometry y="26" width="312" height="26" as="geometry" />
        </mxCell>
        <mxCell id="WPyX183gVmHdlrmDqzyF-50" value="" style="line;strokeWidth=1;fillColor=none;align=left;verticalAlign=middle;spacingTop=-1;spacingLeft=3;spacingRight=3;rotatable=0;labelPosition=right;points=[];portConstraint=eastwest;" vertex="1" parent="WPyX183gVmHdlrmDqzyF-48">
          <mxGeometry y="52" width="312" height="8" as="geometry" />
        </mxCell>
        <mxCell id="WPyX183gVmHdlrmDqzyF-51" value="+ render(in painter: Painter, in d: Vector): void" style="text;strokeColor=none;fillColor=none;align=left;verticalAlign=top;spacingLeft=4;spacingRight=4;overflow=hidden;rotatable=0;points=[[0,0.5],[1,0.5]];portConstraint=eastwest;fontSize=14;" vertex="1" parent="WPyX183gVmHdlrmDqzyF-48">
          <mxGeometry y="60" width="312" height="26" as="geometry" />
        </mxCell>
        <mxCell id="WPyX183gVmHdlrmDqzyF-53" value="+ onTick(in delta: long): void" style="text;strokeColor=none;fillColor=none;align=left;verticalAlign=top;spacingLeft=4;spacingRight=4;overflow=hidden;rotatable=0;points=[[0,0.5],[1,0.5]];portConstraint=eastwest;shadow=0;glass=0;fontSize=14;fontColor=#000000;" vertex="1" parent="WPyX183gVmHdlrmDqzyF-48">
          <mxGeometry y="86" width="312" height="26" as="geometry" />
        </mxCell>
        <mxCell id="WPyX183gVmHdlrmDqzyF-54" value="+ onUp(in v: Vector, in d Vector): void" style="text;strokeColor=none;fillColor=none;align=left;verticalAlign=top;spacingLeft=4;spacingRight=4;overflow=hidden;rotatable=0;points=[[0,0.5],[1,0.5]];portConstraint=eastwest;shadow=0;glass=0;fontSize=14;fontColor=#000000;" vertex="1" parent="WPyX183gVmHdlrmDqzyF-48">
          <mxGeometry y="112" width="312" height="26" as="geometry" />
        </mxCell>
        <mxCell id="WPyX183gVmHdlrmDqzyF-55" value="+ onMove(in v: Vector, in d Vector): void" style="text;strokeColor=none;fillColor=none;align=left;verticalAlign=top;spacingLeft=4;spacingRight=4;overflow=hidden;rotatable=0;points=[[0,0.5],[1,0.5]];portConstraint=eastwest;shadow=0;glass=0;fontSize=14;fontColor=#000000;" vertex="1" parent="WPyX183gVmHdlrmDqzyF-48">
          <mxGeometry y="138" width="312" height="26" as="geometry" />
        </mxCell>
        <mxCell id="WPyX183gVmHdlrmDqzyF-57" value="+ onTap(in v: Vector, in d Vector): void" style="text;strokeColor=none;fillColor=none;align=left;verticalAlign=top;spacingLeft=4;spacingRight=4;overflow=hidden;rotatable=0;points=[[0,0.5],[1,0.5]];portConstraint=eastwest;shadow=0;glass=0;fontSize=14;fontColor=#000000;" vertex="1" parent="WPyX183gVmHdlrmDqzyF-48">
          <mxGeometry y="164" width="312" height="26" as="geometry" />
        </mxCell>
        <mxCell id="WPyX183gVmHdlrmDqzyF-58" value="+ gameTransform(in d: Vector): Transform" style="text;strokeColor=none;fillColor=none;align=left;verticalAlign=top;spacingLeft=4;spacingRight=4;overflow=hidden;rotatable=0;points=[[0,0.5],[1,0.5]];portConstraint=eastwest;shadow=0;glass=0;fontSize=14;fontColor=#000000;" vertex="1" parent="WPyX183gVmHdlrmDqzyF-48">
          <mxGeometry y="190" width="312" height="26" as="geometry" />
        </mxCell>
        <mxCell id="WPyX183gVmHdlrmDqzyF-59" value="+ _gameTransform(in d: Vector): Transform" style="text;strokeColor=none;fillColor=none;align=left;verticalAlign=top;spacingLeft=4;spacingRight=4;overflow=hidden;rotatable=0;points=[[0,0.5],[1,0.5]];portConstraint=eastwest;shadow=0;glass=0;fontSize=14;fontColor=#000000;" vertex="1" parent="WPyX183gVmHdlrmDqzyF-48">
          <mxGeometry y="216" width="312" height="26" as="geometry" />
        </mxCell>
        <mxCell id="WPyX183gVmHdlrmDqzyF-61" value="GameState" style="swimlane;fontStyle=1;align=center;verticalAlign=top;childLayout=stackLayout;horizontal=1;startSize=26;horizontalStack=0;resizeParent=1;resizeParentMax=0;resizeLast=0;collapsible=1;marginBottom=0;shadow=0;glass=0;fontSize=14;fillColor=#fff2cc;strokeColor=#d6b656;" vertex="1" parent="WIyWlLk6GJQsqaUBKTNV-1">
          <mxGeometry x="-972" y="72" width="300" height="294" as="geometry" />
        </mxCell>
        <mxCell id="WPyX183gVmHdlrmDqzyF-62" value="- effectPod: EffectPod" style="text;strokeColor=none;fillColor=none;align=left;verticalAlign=top;spacingLeft=4;spacingRight=4;overflow=hidden;rotatable=0;points=[[0,0.5],[1,0.5]];portConstraint=eastwest;fontSize=14;" vertex="1" parent="WPyX183gVmHdlrmDqzyF-61">
          <mxGeometry y="26" width="300" height="26" as="geometry" />
        </mxCell>
        <mxCell id="WPyX183gVmHdlrmDqzyF-71" value="- powerupPod: PowerupPod" style="text;strokeColor=none;fillColor=none;align=left;verticalAlign=top;spacingLeft=4;spacingRight=4;overflow=hidden;rotatable=0;points=[[0,0.5],[1,0.5]];portConstraint=eastwest;fontSize=14;" vertex="1" parent="WPyX183gVmHdlrmDqzyF-61">
          <mxGeometry y="52" width="300" height="26" as="geometry" />
        </mxCell>
        <mxCell id="WPyX183gVmHdlrmDqzyF-82" value="- brickPod: BrickPod" style="text;strokeColor=none;fillColor=none;align=left;verticalAlign=top;spacingLeft=4;spacingRight=4;overflow=hidden;rotatable=0;points=[[0,0.5],[1,0.5]];portConstraint=eastwest;shadow=0;glass=0;fontSize=14;fontColor=#000000;" vertex="1" parent="WPyX183gVmHdlrmDqzyF-61">
          <mxGeometry y="78" width="300" height="26" as="geometry" />
        </mxCell>
        <mxCell id="WPyX183gVmHdlrmDqzyF-83" value="- paddle: Paddle" style="text;strokeColor=none;fillColor=none;align=left;verticalAlign=top;spacingLeft=4;spacingRight=4;overflow=hidden;rotatable=0;points=[[0,0.5],[1,0.5]];portConstraint=eastwest;shadow=0;glass=0;fontSize=14;fontColor=#000000;" vertex="1" parent="WPyX183gVmHdlrmDqzyF-61">
          <mxGeometry y="104" width="300" height="26" as="geometry" />
        </mxCell>
        <mxCell id="WPyX183gVmHdlrmDqzyF-81" value="- beamPod: BeamPod" style="text;strokeColor=none;fillColor=none;align=left;verticalAlign=top;spacingLeft=4;spacingRight=4;overflow=hidden;rotatable=0;points=[[0,0.5],[1,0.5]];portConstraint=eastwest;fontSize=14;" vertex="1" parent="WPyX183gVmHdlrmDqzyF-61">
          <mxGeometry y="130" width="300" height="26" as="geometry" />
        </mxCell>
        <mxCell id="WPyX183gVmHdlrmDqzyF-63" value="" style="line;strokeWidth=1;fillColor=none;align=left;verticalAlign=middle;spacingTop=-1;spacingLeft=3;spacingRight=3;rotatable=0;labelPosition=right;points=[];portConstraint=eastwest;" vertex="1" parent="WPyX183gVmHdlrmDqzyF-61">
          <mxGeometry y="156" width="300" height="8" as="geometry" />
        </mxCell>
        <mxCell id="WPyX183gVmHdlrmDqzyF-64" value="+ render(in painter: Painter, in d: Vector): void" style="text;strokeColor=none;fillColor=none;align=left;verticalAlign=top;spacingLeft=4;spacingRight=4;overflow=hidden;rotatable=0;points=[[0,0.5],[1,0.5]];portConstraint=eastwest;fontSize=14;" vertex="1" parent="WPyX183gVmHdlrmDqzyF-61">
          <mxGeometry y="164" width="300" height="26" as="geometry" />
        </mxCell>
        <mxCell id="WPyX183gVmHdlrmDqzyF-68" value="+ onTick(in delta: long): void" style="text;strokeColor=none;fillColor=none;align=left;verticalAlign=top;spacingLeft=4;spacingRight=4;overflow=hidden;rotatable=0;points=[[0,0.5],[1,0.5]];portConstraint=eastwest;shadow=0;glass=0;fontSize=14;fontColor=#000000;" vertex="1" parent="WPyX183gVmHdlrmDqzyF-61">
          <mxGeometry y="190" width="300" height="26" as="geometry" />
        </mxCell>
        <mxCell id="WPyX183gVmHdlrmDqzyF-69" value="+ onMove(in v: Vector, in d Vector): void" style="text;strokeColor=none;fillColor=none;align=left;verticalAlign=top;spacingLeft=4;spacingRight=4;overflow=hidden;rotatable=0;points=[[0,0.5],[1,0.5]];portConstraint=eastwest;shadow=0;glass=0;fontSize=14;fontColor=#000000;" vertex="1" parent="WPyX183gVmHdlrmDqzyF-61">
          <mxGeometry y="216" width="300" height="26" as="geometry" />
        </mxCell>
        <mxCell id="WPyX183gVmHdlrmDqzyF-70" value="+ onTap(in v: Vector, in d Vector): void" style="text;strokeColor=none;fillColor=none;align=left;verticalAlign=top;spacingLeft=4;spacingRight=4;overflow=hidden;rotatable=0;points=[[0,0.5],[1,0.5]];portConstraint=eastwest;shadow=0;glass=0;fontSize=14;fontColor=#000000;" vertex="1" parent="WPyX183gVmHdlrmDqzyF-61">
          <mxGeometry y="242" width="300" height="26" as="geometry" />
        </mxCell>
        <mxCell id="WPyX183gVmHdlrmDqzyF-67" value="+ item: attribute" style="text;strokeColor=none;fillColor=none;align=left;verticalAlign=top;spacingLeft=4;spacingRight=4;overflow=hidden;rotatable=0;points=[[0,0.5],[1,0.5]];portConstraint=eastwest;shadow=0;glass=0;fontSize=14;fontColor=#000000;" vertex="1" parent="WPyX183gVmHdlrmDqzyF-61">
          <mxGeometry y="268" width="300" height="26" as="geometry" />
        </mxCell>
        <mxCell id="WPyX183gVmHdlrmDqzyF-84" style="edgeStyle=orthogonalEdgeStyle;rounded=0;orthogonalLoop=1;jettySize=auto;html=1;entryX=0.5;entryY=0;entryDx=0;entryDy=0;fontSize=14;fontColor=#000000;" edge="1" parent="WIyWlLk6GJQsqaUBKTNV-1" source="WPyX183gVmHdlrmDqzyF-49" target="WPyX183gVmHdlrmDqzyF-61">
          <mxGeometry relative="1" as="geometry" />
        </mxCell>
        <mxCell id="WPyX183gVmHdlrmDqzyF-90" value="Painter" style="swimlane;fontStyle=1;align=center;verticalAlign=top;childLayout=stackLayout;horizontal=1;startSize=26;horizontalStack=0;resizeParent=1;resizeParentMax=0;resizeLast=0;collapsible=1;marginBottom=0;shadow=0;glass=0;fontSize=14;fillColor=#fff2cc;strokeColor=#d6b656;" vertex="1" parent="WIyWlLk6GJQsqaUBKTNV-1">
          <mxGeometry x="912" y="95" width="240" height="348" as="geometry" />
        </mxCell>
        <mxCell id="WPyX183gVmHdlrmDqzyF-91" value="- indexBuffer: ShortBuffer" style="text;strokeColor=none;fillColor=none;align=left;verticalAlign=top;spacingLeft=4;spacingRight=4;overflow=hidden;rotatable=0;points=[[0,0.5],[1,0.5]];portConstraint=eastwest;" vertex="1" parent="WPyX183gVmHdlrmDqzyF-90">
          <mxGeometry y="26" width="240" height="26" as="geometry" />
        </mxCell>
        <mxCell id="WPyX183gVmHdlrmDqzyF-94" value="- xyBuffer: FloatBuffer" style="text;strokeColor=none;fillColor=none;align=left;verticalAlign=top;spacingLeft=4;spacingRight=4;overflow=hidden;rotatable=0;points=[[0,0.5],[1,0.5]];portConstraint=eastwest;" vertex="1" parent="WPyX183gVmHdlrmDqzyF-90">
          <mxGeometry y="52" width="240" height="26" as="geometry" />
        </mxCell>
        <mxCell id="WPyX183gVmHdlrmDqzyF-95" value="- uvBuffer: FloatBuffer" style="text;strokeColor=none;fillColor=none;align=left;verticalAlign=top;spacingLeft=4;spacingRight=4;overflow=hidden;rotatable=0;points=[[0,0.5],[1,0.5]];portConstraint=eastwest;" vertex="1" parent="WPyX183gVmHdlrmDqzyF-90">
          <mxGeometry y="78" width="240" height="26" as="geometry" />
        </mxCell>
        <mxCell id="WPyX183gVmHdlrmDqzyF-96" value="- rgbaBuffer: ByteBuffer" style="text;strokeColor=none;fillColor=none;align=left;verticalAlign=top;spacingLeft=4;spacingRight=4;overflow=hidden;rotatable=0;points=[[0,0.5],[1,0.5]];portConstraint=eastwest;" vertex="1" parent="WPyX183gVmHdlrmDqzyF-90">
          <mxGeometry y="104" width="240" height="26" as="geometry" />
        </mxCell>
        <mxCell id="WPyX183gVmHdlrmDqzyF-108" value="" style="text;strokeColor=none;fillColor=none;align=left;verticalAlign=middle;spacingTop=-1;spacingLeft=4;spacingRight=4;rotatable=0;labelPosition=right;points=[];portConstraint=eastwest;shadow=0;glass=0;fontSize=14;fontColor=#000000;" vertex="1" parent="WPyX183gVmHdlrmDqzyF-90">
          <mxGeometry y="130" width="240" height="14" as="geometry" />
        </mxCell>
        <mxCell id="WPyX183gVmHdlrmDqzyF-97" value="- transform: Transform" style="text;strokeColor=none;fillColor=none;align=left;verticalAlign=top;spacingLeft=4;spacingRight=4;overflow=hidden;rotatable=0;points=[[0,0.5],[1,0.5]];portConstraint=eastwest;" vertex="1" parent="WPyX183gVmHdlrmDqzyF-90">
          <mxGeometry y="144" width="240" height="26" as="geometry" />
        </mxCell>
        <mxCell id="WPyX183gVmHdlrmDqzyF-109" value="" style="text;strokeColor=none;fillColor=none;align=left;verticalAlign=middle;spacingTop=-1;spacingLeft=4;spacingRight=4;rotatable=0;labelPosition=right;points=[];portConstraint=eastwest;shadow=0;glass=0;fontSize=14;fontColor=#000000;" vertex="1" parent="WPyX183gVmHdlrmDqzyF-90">
          <mxGeometry y="170" width="240" height="14" as="geometry" />
        </mxCell>
        <mxCell id="WPyX183gVmHdlrmDqzyF-98" value="- vertexShaderSource: String" style="text;strokeColor=none;fillColor=none;align=left;verticalAlign=top;spacingLeft=4;spacingRight=4;overflow=hidden;rotatable=0;points=[[0,0.5],[1,0.5]];portConstraint=eastwest;" vertex="1" parent="WPyX183gVmHdlrmDqzyF-90">
          <mxGeometry y="184" width="240" height="26" as="geometry" />
        </mxCell>
        <mxCell id="WPyX183gVmHdlrmDqzyF-99" value="- fragmentShaderSource: String" style="text;strokeColor=none;fillColor=none;align=left;verticalAlign=top;spacingLeft=4;spacingRight=4;overflow=hidden;rotatable=0;points=[[0,0.5],[1,0.5]];portConstraint=eastwest;" vertex="1" parent="WPyX183gVmHdlrmDqzyF-90">
          <mxGeometry y="210" width="240" height="26" as="geometry" />
        </mxCell>
        <mxCell id="WPyX183gVmHdlrmDqzyF-100" value="- font1: Font" style="text;strokeColor=none;fillColor=none;align=left;verticalAlign=top;spacingLeft=4;spacingRight=4;overflow=hidden;rotatable=0;points=[[0,0.5],[1,0.5]];portConstraint=eastwest;" vertex="1" parent="WPyX183gVmHdlrmDqzyF-90">
          <mxGeometry y="236" width="240" height="26" as="geometry" />
        </mxCell>
        <mxCell id="WPyX183gVmHdlrmDqzyF-101" value="- font2: Font" style="text;strokeColor=none;fillColor=none;align=left;verticalAlign=top;spacingLeft=4;spacingRight=4;overflow=hidden;rotatable=0;points=[[0,0.5],[1,0.5]];portConstraint=eastwest;" vertex="1" parent="WPyX183gVmHdlrmDqzyF-90">
          <mxGeometry y="262" width="240" height="26" as="geometry" />
        </mxCell>
        <mxCell id="WPyX183gVmHdlrmDqzyF-92" value="" style="line;strokeWidth=1;fillColor=none;align=left;verticalAlign=middle;spacingTop=-1;spacingLeft=3;spacingRight=3;rotatable=0;labelPosition=right;points=[];portConstraint=eastwest;" vertex="1" parent="WPyX183gVmHdlrmDqzyF-90">
          <mxGeometry y="288" width="240" height="8" as="geometry" />
        </mxCell>
        <mxCell id="WPyX183gVmHdlrmDqzyF-93" value="+ transform(intransform: Transform): void" style="text;strokeColor=none;fillColor=none;align=left;verticalAlign=top;spacingLeft=4;spacingRight=4;overflow=hidden;rotatable=0;points=[[0,0.5],[1,0.5]];portConstraint=eastwest;" vertex="1" parent="WPyX183gVmHdlrmDqzyF-90">
          <mxGeometry y="296" width="240" height="26" as="geometry" />
        </mxCell>
        <mxCell id="WPyX183gVmHdlrmDqzyF-107" value="+ transform(intransform: Transform): void" style="text;strokeColor=none;fillColor=none;align=left;verticalAlign=top;spacingLeft=4;spacingRight=4;overflow=hidden;rotatable=0;points=[[0,0.5],[1,0.5]];portConstraint=eastwest;" vertex="1" parent="WPyX183gVmHdlrmDqzyF-90">
          <mxGeometry y="322" width="240" height="26" as="geometry" />
        </mxCell>
        <mxCell id="WPyX183gVmHdlrmDqzyF-110" style="edgeStyle=orthogonalEdgeStyle;rounded=0;orthogonalLoop=1;jettySize=auto;html=1;entryX=0.5;entryY=0;entryDx=0;entryDy=0;fontSize=14;fontColor=#000000;" edge="1" parent="WIyWlLk6GJQsqaUBKTNV-1" source="WPyX183gVmHdlrmDqzyF-24" target="WPyX183gVmHdlrmDqzyF-90">
          <mxGeometry relative="1" as="geometry" />
        </mxCell>
      </root>
    </mxGraphModel>
  </diagram>
</mxfile>
